<?xml version="1.0" encoding="utf-8"?>
<!DOCTYPE svg PUBLIC "-//W3C//DTD SVG 1.0//EN" "http://www.w3.org/TR/2001/REC-SVG-20010904/DTD/svg10.dtd">
<svg version="1.0" xmlns="http://www.w3.org/2000/svg" width="1068px" height="826px" viewBox="0 0 1068 826" preserveAspectRatio="xMidYMid meet">
 <g fill="#1a1a5b">
  <path d="M0 476.5 l0 -349.5 27 0 27 0 2.5 4 c1.4 2.2 2.5 4.1 2.5 4.3 0 1.4 19.4 33.6 21.1 35 1.9 1.5 4.6 1.7 24.8 1.6 12.4 -0.1 23.7 -0.4 25.1 -0.8 2.3 -0.6 9.2 -11.5 24.8 -39.1 l2.3 -4 25.8 0 c29.3 0 26.5 0.8 32.4 -9.5 1.8 -3.3 6.8 -11.9 10.9 -19.1 4.2 -7.2 8.3 -14.5 9.2 -16.3 l1.7 -3.2 -11.6 -19.9 c-13.7 -23.5 -13.9 -24.6 -7.6 -35.1 3.8 -6.4 5.9 -9.9 11.6 -19.7 l3 -5.2 417.8 0 417.7 0 0 348.1 0 348.2 -3.7 -0.7 c-2.1 -0.3 -14.9 -0.6 -28.5 -0.6 l-24.6 0 -6.8 -11.7 c-12.8 -22.3 -14.3 -24.8 -16.8 -28.5 l-2.6 -3.8 -24.4 0 c-13.4 0 -25.2 0.3 -26 0.6 -1.5 0.6 -4.1 4.6 -11.4 17.4 -3.6 6.4 -8.9 15.5 -11.9 20.5 l-2.9 5 -26.1 0.3 c-29 0.3 -26.9 -0.2 -31.3 7.7 -1.2 2.2 -6.7 11.8 -12.1 21.2 -5.5 9.5 -9.9 17.8 -9.9 18.4 0 0.6 2.3 4.9 5 9.6 2.8 4.7 5 8.6 5 8.8 0 0.2 2.7 4.9 6 10.5 5.3 9.1 6 10.8 6 15.6 0 4.8 -0.6 6.4 -4.8 13.2 -2.7 4.2 -5.1 8.2 -5.3 8.7 -0.2 0.6 -2.6 4.7 -5.3 9.3 l-4.9 8.2 -415.3 0 -415.4 0 0 -349.5z m443.9 171.1 c-0.2 -0.2 -4 -0.6 -8.4 -0.9 -4.8 -0.3 -6.6 -0.2 -4.5 0.3 3.6 0.8 13.7 1.3 12.9 0.6z m12.9 -35.3 c0.2 -11.7 0.2 -22 -0.2 -22.8 -0.5 -1.3 -0.8 -1.3 -2.5 0.1 -1.8 1.6 -1.8 1.9 -0.4 4 1.1 1.8 1.4 4.8 1.1 13.8 -0.3 9.9 -0.6 11.7 -2.2 12.9 -1.8 1.3 -1.8 1.4 0.4 2 2.2 0.6 2.3 0.9 1.8 7.8 -0.4 5.5 -0.3 6.8 0.5 5.3 0.7 -1.1 1.3 -10.3 1.5 -23.1z m41.2 14.7 c2 -0.6 1.5 -0.8 -2.5 -0.9 -3.6 0 -4.6 0.2 -3.5 0.9 1.7 1.1 2.5 1.1 6 0z m105 0 c1.8 -0.6 0.5 -0.8 -4.5 -0.8 -4.8 -0.1 -6.4 0.2 -5 0.8 2.5 1.1 6.2 1.1 9.5 0z m79 0 c1.8 -0.6 0.6 -0.8 -4 -0.8 -5 0 -5.8 0.2 -3.5 0.8 3.8 1 4.5 1 7.5 0z m51 0 c1.8 -0.6 0.7 -0.8 -4 -0.8 -4.5 -0.1 -5.9 0.2 -4.5 0.8 2.5 1.1 5.2 1.1 8.5 0z m-333.1 -31 c0.1 -23.6 -0.6 -30.9 -2.3 -26.5 -0.8 2.2 -0.8 49.4 0.1 53.6 0.7 3.3 0.7 3.3 1.4 0.9 0.4 -1.4 0.7 -14 0.8 -28z m148.8 27.4 c1.2 -1.9 1.1 -2 -2.2 -1.6 -3.1 0.4 -3.3 0.6 -2.4 2.4 1.2 2.2 2.7 2 4.6 -0.8z m85.3 -13.7 c0 -7.6 0.5 -14.7 1 -15.8 0.6 -1.1 0.7 -1.9 0.2 -1.9 -0.6 0 -1.2 -0.9 -1.5 -2.1 -0.3 -1.2 -1 -1.8 -1.6 -1.4 -1.2 0.7 -1.6 35.7 -0.4 36.8 1.6 1.7 2.3 -2.7 2.3 -15.6z m76.3 2.1 c-0.1 -3.5 -0.3 -8.1 -0.3 -10.3 -0.1 -6.3 -2.1 -1.7 -2.1 5 -0.1 4.3 1.5 11.5 2.5 11.5 0 0 0 -2.8 -0.1 -6.2z m-130.2 -9.7 l-0.3 -4.5 -1.4 3.3 c-1.7 4.1 -1.8 7.4 -0.1 12 l1.2 3.5 0.5 -5 c0.3 -2.7 0.3 -6.9 0.1 -9.3z m-226.3 9.1 l18.8 0.3 -2 -5.3 -2.1 -5.3 -0.5 3.8 -0.5 3.8 -14 0 -14 0 -0.6 -4 c-0.3 -2.2 -0.7 -3.3 -0.8 -2.5 0 0.8 -1.2 3.7 -2.6 6.4 -1.4 2.7 -2.5 5.4 -2.4 6 0 0.6 0.4 0.1 0.9 -1.2 1 -2.3 1 -2.3 19.8 -2z m66.1 -5.4 l-0.1 -8.3 -1.3 4.3 c-0.8 2.4 -1.2 4.8 -1 5.5 0.2 0.7 0.6 2.4 0.9 4 1.1 4.8 1.6 2.9 1.5 -5.5z m57 0.5 c-0.1 -6.9 -0.2 -7.4 -1.1 -4.3 -0.9 3.1 -0.3 12 0.8 12 0.2 0 0.4 -3.5 0.3 -7.7z m37.3 -4 c-0.9 -2.3 -1 -1.5 -1 4.7 0 7.5 0 7.5 1 2.8 0.7 -3.1 0.7 -5.6 0 -7.5z m99 -0.9 c-0.6 -3.5 -1.2 -2.9 -1.2 1.4 0 2.3 0.3 3.2 0.9 2.4 0.4 -0.7 0.6 -2.4 0.3 -3.8z m130.1 -0.6 l-1.1 -3.3 -0.1 4.5 c-0.1 3.3 0.2 4.1 1.1 3.2 0.8 -0.8 0.8 -2 0.1 -4.4z m-305.5 -14.5 c-1 -0.2 -2.6 -0.2 -3.5 0 -1 0.3 -0.2 0.5 1.7 0.5 1.9 0 2.7 -0.2 1.8 -0.5z m59.5 0 c-1.3 -0.2 -3.3 -0.2 -4.5 0 -1.3 0.2 -0.3 0.4 2.2 0.4 2.5 0 3.5 -0.2 2.3 -0.4z m100.5 0 c-1 -0.2 -2.8 -0.2 -4 0 -1.3 0.2 -0.5 0.4 1.7 0.4 2.2 0.1 3.2 -0.1 2.3 -0.4z m86 0.1 c-0.8 -0.7 -8.8 -0.8 -9.5 0 -0.4 0.3 1.8 0.6 4.7 0.6 2.9 0 5.1 -0.3 4.8 -0.6z m-327.2 -12.9 c-1.7 -4.1 -4.1 -4.3 -6 -0.4 -0.9 1.8 -1.6 3.3 -1.6 3.3 0 0.1 2 0.1 4.4 0.1 l4.4 0 -1.2 -3z m30.1 -59.5 c2.6 -0.5 8.9 -1.7 13.8 -2.5 9 -1.6 15.2 -3 19 -4.5 1.1 -0.4 5.2 -1.6 9 -2.6 3.9 -0.9 7.7 -2.1 8.5 -2.5 0.8 -0.4 4.2 -1.7 7.5 -3 3.3 -1.2 7.4 -2.8 9 -3.5 1.7 -0.7 7.8 -3.3 13.7 -5.8 5.9 -2.5 11.5 -4.9 12.5 -5.5 1 -0.5 4.3 -2.2 7.3 -3.7 22.7 -11.3 58 -32.3 75 -44.8 36.9 -26.9 54.6 -41.6 83 -69.1 34 -32.8 59.6 -65.7 76.3 -97.7 4.7 -9 10.5 -26.1 11.8 -35 1 -6.9 0.9 -8.4 -1 -14.6 -2.7 -8.8 -8 -15 -16.4 -19.2 -7.7 -3.8 -14.9 -5 -29.7 -5 l-11.4 0 -4.6 -4.4 c-2.5 -2.4 -6.1 -5.3 -8.2 -6.4 -6.5 -3.6 -18.4 -5 -30.5 -3.6 l-5.2 0.7 2.4 3.1 c1.4 1.7 3 3.7 3.6 4.5 3.3 3.8 5.2 11.9 5.7 23.3 0.6 14.8 -1.4 26 -6.8 39.3 -10.1 24.7 -34 58 -62.1 86.9 -18.7 19.2 -32.4 31.2 -57.4 50.4 -5.6 4.3 -14.5 10.2 -15.4 10.2 -0.6 0 -1.1 0.5 -1.1 1.1 0 0.6 -1.6 0.9 -3.7 0.7 -3.6 -0.3 -3.8 -0.5 -4.1 -4 -0.2 -2.6 0.2 -4.2 1.5 -5.2 1 -0.8 5.7 -4.6 10.4 -8.3 31.6 -25.1 61 -55.4 84 -86.3 6 -8.2 15.9 -22.8 15.9 -23.6 0 -0.2 1.1 -2.1 2.4 -4.2 7.2 -11 14.7 -26.3 17.5 -35.6 1.2 -3.8 2.1 -7.3 2.1 -7.7 0 -0.8 -15.6 -10.9 -16.8 -10.9 -0.4 0 -2.3 -1 -4.2 -2.3 -4.1 -2.7 -19.9 -9.2 -25 -10.2 -1.9 -0.4 -6.2 -1.5 -9.5 -2.5 -12.5 -3.7 -17.1 -4.3 -33.4 -4.4 -19.5 0 -31 1.9 -50.6 8.6 -10.6 3.6 -28.7 12.8 -38.5 19.6 -8.7 6 -26.4 22.6 -33.4 31.2 -3.1 3.8 -15.6 22.6 -15.6 23.4 0 0.3 -1.6 3.8 -3.5 7.7 -7.5 15.4 -12.7 34.5 -14.5 53.4 -2.5 25.6 4.3 57.2 17.6 82.4 5.1 9.7 15.6 25.3 18.6 27.8 1.3 1.2 10.8 -0.4 12.4 -2 0.4 -0.4 1.4 -0.7 2.3 -0.7 1.7 0 13.1 -4.1 19.8 -7.1 2.4 -1 4.5 -1.9 4.8 -1.9 0.6 0 25.7 -12.5 34.5 -17.1 9.5 -5.1 38.7 -23.8 52.5 -33.8 28 -20 60.7 -50 79.7 -72.9 4 -4.8 7.5 -8.9 7.8 -9.2 2.5 -2.1 22.3 -30.4 27 -38.5 7.8 -13.5 11 -19.3 15.2 -28.2 4.9 -10.1 5 -10.3 8.4 -10.3 l3.4 0 0 5.8 c0 10.2 -7.4 29.3 -19.5 50.7 -21.9 38.7 -58.9 78.2 -105.5 112.7 -14.4 10.6 -37.7 26.1 -46.5 30.9 -1.6 0.9 -5.9 3.3 -9.5 5.4 -7.1 4.1 -28.8 15.1 -36 18.3 -12.6 5.5 -23.1 9.6 -28 10.9 -3 0.8 -6.8 1.8 -8.5 2.3 -16 4.6 -34.7 6.1 -46.4 3.6 -8.5 -1.9 -12.4 -4 -17.5 -9.6 -4.6 -5.1 -5.1 -7.2 -5.1 -20.5 0 -10.4 1.4 -18 3.8 -21.3 0.6 -0.7 0.7 -1.5 0.5 -1.8 -0.6 -0.6 -8.7 12.5 -13.9 22.6 -12.8 24.5 -16.5 42.9 -11.3 55.9 2.2 5.4 12 14.4 17.6 16 2.4 0.7 5.1 1.7 6 2.2 1 0.5 3 0.9 4.5 1 1.6 0 3.7 0.4 4.8 0.9 2.8 1.2 11.4 1.2 17.2 0z m167.1 -9.6 c5.9 -0.8 11.6 -1.9 12.7 -2.4 1.1 -0.5 5.8 -2 10.5 -3.5 8.7 -2.6 10.7 -3.5 22 -8.8 13.9 -6.7 25.8 -15.4 39.1 -28.6 5.2 -5.3 11.6 -12.4 14.2 -15.9 4.9 -6.4 14.7 -21.7 14.7 -22.8 0 -0.3 0.8 -1.8 1.9 -3.2 1 -1.5 2.2 -3.8 2.6 -5.2 0.4 -1.4 1.5 -4.3 2.5 -6.5 2.2 -5.1 3.4 -8.5 5.5 -16 0.9 -3.3 2.1 -7.1 2.5 -8.5 1.3 -3.8 2.9 -14.6 3.6 -24 l0.6 -8.5 -6.8 7.5 c-23.9 26.2 -57.8 56.4 -92.4 82 -11.4 8.5 -39.1 27.3 -44.1 30.1 -1.5 0.8 -5.7 3.2 -9.4 5.4 -11 6.6 -14.3 8.4 -29.5 16.3 -8 4.1 -14.7 7.6 -14.8 7.8 -0.7 0.5 7.2 2.6 16.3 4.4 11.8 2.3 34.2 2.5 48.3 0.4z"/>
  <path d="M835 823.9 c0 -1.2 2.6 -6.4 5.7 -11.7 3.2 -5.4 6.4 -10.8 7.1 -12.2 0.7 -1.4 2.5 -4.4 4 -6.7 l2.7 -4.3 26.2 0 26.2 0 1.9 2.8 c5 7.1 17.2 29.7 17.2 31.8 l0 2.4 -45.5 0 -45.5 0 0 -2.1z"/>
  <path d="M929.6 823.8 c-0.8 -1.3 -5.3 -9 -10 -17.2 -10.2 -17.8 -10.5 -19.4 -5 -29.4 2 -3.7 4 -7.1 4.4 -7.7 0.4 -0.5 1.8 -2.8 3 -5 1.2 -2.2 4.3 -7.5 6.8 -11.7 l4.6 -7.8 26.2 0 26.2 0 2.9 4.8 c3.7 5.9 9.7 16.2 15.8 27.1 3.9 6.9 4.6 9.1 4.2 12 -0.3 2.1 -4.7 10.8 -10.3 20.4 l-9.8 16.7 -28.8 0 c-28.7 0 -28.8 0 -30.2 -2.2z"/>
  <path d="M993 823.8 c0 -1.2 1.7 -5.1 3.9 -8.7 2.1 -3.6 6.4 -11 9.5 -16.3 l5.7 -9.8 27.9 0 28 0 0 18.5 0 18.5 -37.5 0 -37.5 0 0 -2.2z"/>
  <path d="M1037.1 785 l-26.3 -0.5 -10.9 -19 c-8.7 -15.1 -10.9 -19.8 -10.9 -22.8 0 -3.1 2.1 -7.6 10.2 -21.5 5.5 -9.7 10.6 -18.5 11.2 -19.4 1 -1.6 3.5 -1.8 29.3 -1.8 l28.3 0 0 43 0 43 -2.2 -0.2 c-1.3 -0.1 -14.2 -0.5 -28.7 -0.8z"/>
  <path d="M855.3 784.2 c-1.1 -0.7 -11.6 -18.4 -18.6 -31.2 -1.6 -3 -3.4 -5.9 -3.8 -6.4 -1.2 -1.4 -1.1 -7.3 0.1 -9.7 1 -1.7 2.2 -1.9 13.4 -1.9 9.4 0 12.6 -0.3 13.5 -1.4 1.9 -2.2 -0.4 -3 -9.9 -3.6 l-8.5 -0.5 -0.3 -3.2 c-0.2 -2.1 0.5 -4.5 2.4 -7.2 l2.7 -4.1 16.8 0 c15.7 0 19.8 -0.7 16.7 -2.7 -0.7 -0.4 -6.7 -0.8 -13.3 -0.9 -6.6 0 -12.6 -0.1 -13.2 -0.2 -2.1 -0.3 -1.6 -7.5 0.7 -10 2 -2.2 2.6 -2.2 27.8 -2.2 l25.7 0 1.6 2.8 c0.8 1.5 5.1 8.8 9.4 16.2 4.3 7.4 8.6 15 9.6 16.8 3.6 6.3 2.7 10 -6.3 25.5 -4.5 7.8 -9.3 16.2 -10.7 18.7 -1.3 2.5 -3 4.8 -3.5 5.2 -1.4 1 -50.8 1 -52.3 0z"/>
  <path d="M932.6 738.8 c-0.7 -1.3 -5.9 -10.1 -11.5 -19.7 -12.2 -20.9 -12.3 -21.4 -5.5 -33.5 2.6 -4.4 5.8 -10.1 7.2 -12.6 1.4 -2.5 4.4 -7.6 6.7 -11.5 l4.1 -7 25.6 -0.3 25.6 -0.2 2 2.7 c1.1 1.6 6.3 10.4 11.6 19.6 12.2 21.5 12.3 22 3.6 36.7 -3.3 5.6 -6 10.4 -6 10.6 0 0.2 -1.1 2.1 -2.4 4.2 -1.3 2 -3.6 5.7 -4.9 8.2 l-2.5 4.5 -26.1 0.3 -26 0.2 -1.5 -2.2z"/>
  <path d="M79.3 166.8 c-0.5 -0.7 -2.9 -4.7 -5.3 -8.8 -2.4 -4.1 -5.5 -9.5 -7 -12 -10.9 -18 -12 -22.5 -7.5 -29.2 1.4 -2 2.5 -3.9 2.5 -4.2 0 -0.2 2.7 -5 6 -10.6 3.3 -5.6 6 -10.4 6 -10.7 0 -0.2 1.4 -2.4 3.1 -4.9 l3 -4.4 26.2 0.2 26.1 0.3 7.3 12.5 c4.1 6.9 7.7 13.1 8 13.9 0.4 0.8 2.1 3.9 4 6.9 4.5 7.7 4.4 10.9 -1.1 20.2 -2.4 4.1 -7.5 12.9 -11.3 19.5 l-6.9 12 -26.1 0.3 c-20.1 0.2 -26.2 -0.1 -27 -1z"/>
  <path d="M0 80 l0 -43 26.3 0 c14.4 0 26.7 0.4 27.3 0.8 1.1 0.7 6.8 10.2 21.5 36 1.1 1.8 1.9 4.6 1.9 6.2 0 2.5 -2.4 8.2 -5 11.5 -0.4 0.6 -2.2 3.7 -4 7 -1.8 3.3 -4.1 7.4 -5 9 -1 1.7 -3.3 5.7 -5.2 9 l-3.4 6 -27.2 0.3 -27.2 0.2 0 -43z"/>
  <path d="M157.3 121.8 c-0.9 -1.5 -0.2 -0.3 -12.5 -21.7 -6.4 -11.1 -9.8 -18 -9.8 -19.9 0 -1.9 2.6 -7.6 7.1 -15.3 6.3 -10.9 9.3 -16.1 13.3 -23.4 2.6 -4.5 2.2 -4.5 28.9 -4.5 19.2 0 25.7 0.3 26.5 1.3 0.5 0.6 1.9 2.8 3 4.7 6.9 12.3 17.6 30.7 18.3 31.5 1.2 1.3 1.1 9.2 -0.1 11.6 -1 1.7 -2.2 1.9 -13.5 1.9 -11.5 0 -15.1 0.8 -13 2.8 0.4 0.4 4.7 0.9 9.6 1 l8.9 0.4 0 4.1 c0 2.4 -0.9 5.6 -2 7.5 l-2 3.2 -16.2 0 c-16.1 0 -21 0.9 -17.8 3 0.8 0.5 7.2 1 14.3 1 l12.7 0 0 4.1 c0 8.3 1.3 7.9 -28.5 7.9 -20 0 -26.6 -0.3 -27.2 -1.2z"/>
  <path d="M79.2 76.8 c-0.5 -0.7 -5.8 -9.5 -11.6 -19.5 -12.6 -21.7 -12.8 -22.7 -6.7 -33.1 6.3 -10.9 10.1 -17.5 11.8 -21 l1.7 -3.2 31.3 0 31.3 0 2 4.1 c1.2 2.2 3.7 6.4 5.6 9.4 1.8 3 3.4 5.6 3.4 5.9 0 0.3 1.6 3 3.5 6 4.9 7.6 4.7 10.5 -1.5 21.2 -2.7 4.8 -5 8.9 -5 9.1 0 0.2 -1.1 2 -2.3 4.1 -1.3 2 -4.3 7 -6.7 11 l-4.2 7.2 -25.8 0 c-19.4 0 -26 -0.3 -26.8 -1.2z"/>
  <path d="M0 17 l0 -17 35.5 0 c39.7 0 37.9 -0.4 33.3 7 -1.2 1.9 -2.7 4.4 -3.3 5.5 -0.6 1.1 -2.6 4.7 -4.5 8 -1.8 3.3 -4.4 7.7 -5.7 9.8 l-2.3 3.7 -26.5 0 -26.5 0 0 -17z"/>
  <path d="M155.4 28.8 c-9.6 -16.1 -15.4 -26.4 -15.4 -27.5 0 -1 8.6 -1.3 44.5 -1.3 36.6 0 44.5 0.2 44.5 1.3 0 1.9 -1.7 5.1 -10.3 19.2 l-7.3 12 -26.7 0.3 -26.8 0.2 -2.5 -4.2z"/>
 </g>
 <g fill="#fcfcfd">
  <path d="M828.6 821.3 c1.5 -2.7 4.3 -7.2 6.1 -10.1 1.8 -2.9 3.3 -5.5 3.3 -5.7 0 -0.3 2.3 -4.1 5 -8.5 2.8 -4.4 5 -9.1 5 -10.4 0 -1.3 -2.7 -7 -6 -12.6 -3.3 -5.6 -6 -10.3 -6 -10.5 0 -0.1 -2.5 -4.5 -5.5 -9.6 -3 -5.2 -5.5 -10.5 -5.5 -11.8 0 -1.3 4.7 -10.5 10.4 -20.5 5.7 -9.9 11.4 -19.9 12.6 -22.1 4.4 -7.9 2.3 -7.4 31.3 -7.7 l26.1 -0.3 2.9 -5 c3 -5 8.3 -14.1 11.9 -20.5 7.3 -12.8 9.9 -16.8 11.4 -17.4 0.8 -0.3 13.9 -0.6 29 -0.6 l27.4 0 2.6 3.8 c2.5 3.7 4 6.2 16.8 28.5 l6.8 11.7 25.8 0 c28.7 0 28.4 -0.1 27.8 6.7 l-0.3 3.8 -26.6 0.3 -26.5 0.2 -9.1 15.8 c-5 8.6 -10.1 17.6 -11.4 19.8 l-2.3 4.2 11.1 19.3 11.1 19.4 26.8 0.5 c14.8 0.3 27 0.7 27.2 0.8 0.1 0.1 0.2 2.2 0.2 4.7 l0 4.5 -26.5 0 -26.4 0 -5.7 9.8 c-3.1 5.3 -7.5 12.9 -9.8 16.9 l-4.1 7.2 -5.7 0.1 -5.8 0 2.6 -4.6 c1.5 -2.6 6.2 -10.8 10.6 -18.3 4.4 -7.5 8 -14.3 8 -15.1 0.1 -0.8 -1.8 -4.9 -4.1 -9 -6.4 -11.2 -12.1 -20.9 -15.4 -26.2 l-2.9 -4.8 -23.2 0 -23.2 0 -4.6 7.8 c-2.5 4.2 -5.6 9.5 -6.8 11.7 -1.2 2.2 -2.6 4.5 -3 5 -0.4 0.6 -2.4 4.1 -4.5 7.9 -4.4 8.1 -5.2 5.7 8.5 29.1 4.9 8.5 9 15.7 9 16 0 0.3 -2.5 0.5 -5.6 0.3 l-5.6 -0.3 -8.9 -15.4 c-4.9 -8.4 -9.4 -16 -10 -16.7 -0.9 -1.1 -5.9 -1.4 -24.3 -1.4 l-23.2 0 -3.3 5.6 c-1.9 3 -4.1 6.8 -5 8.3 -0.9 1.5 -3.8 6.7 -6.6 11.4 l-5 8.7 -5.8 0 -5.8 0 2.7 -4.7z m76 -40.1 c0.5 -0.4 2.2 -2.7 3.5 -5.2 1.4 -2.5 6.2 -10.9 10.7 -18.7 4.5 -7.7 8.2 -14.6 8.2 -15.2 0 -1.1 -0.3 -1.7 -11.5 -21.1 -4.3 -7.4 -8.6 -14.7 -9.4 -16.2 l-1.6 -2.8 -22.7 0 c-22.1 0 -22.8 0.1 -24.8 2.2 -2.1 2.2 -2.6 3.8 -1.2 3.8 0.4 0.1 6.4 0.2 13.3 0.3 13.5 0.2 15.9 1 15.9 5.2 0 4.2 -1.9 4.7 -19.3 4.6 l-16.4 -0.2 -2.6 4 c-1.4 2.1 -2.3 4.2 -2 4.5 0.4 0.3 4.1 0.6 8.2 0.6 10.9 0 14.6 3.1 10.5 8.8 -1.4 2.1 -2.2 2.2 -13.9 2.2 -11.5 0 -12.5 0.1 -13.5 2.1 -0.7 1.3 -0.8 2.5 -0.2 3.2 0.5 0.7 2.3 3.7 3.9 6.7 7.1 13.1 17.5 30.5 18.6 31.2 1.5 1 44.9 1 46.3 0z m81.1 -48.2 c1.3 -2.5 3.6 -6.2 4.9 -8.2 1.3 -2.1 2.4 -4 2.4 -4.2 0 -0.2 2.7 -5 6 -10.6 3.3 -5.6 6 -11 6 -12 0 -1.7 -16.9 -32.2 -21.2 -38.3 l-2 -2.7 -22.6 0.2 -22.6 0.3 -4.1 7 c-2.3 3.9 -5.3 9 -6.7 11.5 -1.4 2.5 -4.6 8.2 -7.2 12.6 -2.5 4.5 -4.6 8.6 -4.6 9.2 0 0.8 16.5 29.8 21.6 38 1.5 2.2 1.5 2.2 24.5 2 l23.1 -0.3 2.5 -4.5z"/>
  <path d="M431.5 650.9 c-9.3 -2.3 -11.5 -3 -13 -4.5 -4 -4.1 0.4 -7.3 6.8 -5 5.8 2.1 15.9 2.9 18.8 1.6 1.4 -0.6 3.4 -2.5 4.6 -4.3 2.4 -3.6 4 -12.1 2.5 -13.1 -0.6 -0.3 -3.2 0.5 -5.8 1.9 -5.7 3.1 -11.3 3.2 -17.4 0.4 -9.3 -4.2 -13.3 -10.6 -13.4 -21.4 -0.2 -12.6 6.3 -21 17.9 -23.6 4.6 -1 5.9 -0.9 9.7 0.5 2.4 1 5 2.4 5.9 3.2 1.5 1.4 2 1.2 4.2 -1.1 2.9 -3.2 6.4 -2.7 7.3 1.1 0.3 1.3 0.4 13.1 0.2 26.1 -0.3 17.7 -0.8 24.6 -1.9 26.9 -2 4.3 -5.9 8.7 -9 10.1 -3.8 1.7 -12.8 2.3 -17.4 1.2z m10 -29.2 c2.3 -0.6 5.4 -2.3 7 -3.5 2.9 -2.3 3 -2.8 3.4 -11.3 l0.3 -9 -3.6 -3.4 c-6.6 -6.2 -16.6 -5.7 -22.6 1.1 -2.7 3.1 -3 4.1 -3 10.1 0 9.5 2.7 13.2 12 16.6 2.2 0.8 2.1 0.8 6.5 -0.6z"/>
  <path d="M486.5 629.1 c-8.5 -3.5 -10.8 -6 -14 -15.5 -1.4 -4.2 -1.5 -5.8 -0.5 -10.9 2.3 -11.6 7.6 -17.2 18.6 -19.7 10.2 -2.3 20.1 2.7 25 12.6 2.4 4.9 2.6 6.3 2.1 12.9 -0.4 6 -1.1 8.2 -3.5 11.7 -4 5.8 -5.9 7.3 -11.5 9.2 -5.9 2 -11 1.9 -16.2 -0.3z m16.1 -8.3 c9.2 -6.3 9.8 -19.3 1.5 -27.3 -2.7 -2.5 -3.9 -2.9 -8.9 -3 -4.7 0 -6.3 0.5 -9.3 2.7 -2.1 1.7 -4.1 4.4 -4.9 6.7 -1.6 5.1 -0.8 13.5 1.6 16.8 4.7 6.2 14.1 8.1 20 4.1z"/>
  <path d="M589.5 629.8 c-10.3 -3.9 -15.5 -11.6 -15.5 -22.9 0 -16.5 13.2 -27.7 27.6 -23.4 2.8 0.8 6.3 2.4 7.8 3.6 4.8 3.8 8.6 13.9 7.2 19.4 l-0.6 2.5 -16.3 0.2 c-14.7 0.3 -16.2 0.5 -16.5 2.1 -0.6 2.9 3.9 8.5 8.1 10.2 4.9 2 10.8 1.9 16.9 -0.2 4.8 -1.7 5 -1.7 6.3 0 1.9 2.6 0.9 4.5 -3.9 6.9 -4.8 2.5 -16.5 3.4 -21.1 1.6z m19.5 -28.3 c0 -2.6 -2.8 -7.2 -5.6 -9.4 -6.9 -5.4 -20.3 -0.1 -20.4 8.2 l0 2.7 13 0 c11.1 0 13 -0.2 13 -1.5z"/>
  <path d="M669.8 629.7 c-2.5 -0.8 -5.8 -2.1 -7.2 -3 -5.8 -3.8 -1.2 -7.4 6.4 -5.1 2.5 0.8 6.8 1.4 9.6 1.4 4.1 0 5.5 -0.5 7.3 -2.4 1.5 -1.6 2.1 -3.1 1.7 -4.4 -0.7 -2.1 -2 -2.7 -12.6 -6.2 -9.1 -3 -11 -4 -12.6 -7.2 -2.8 -5.4 -0.9 -13.9 3.9 -17.1 4.8 -3.1 11 -4 18.2 -2.7 8.6 1.6 11.3 4.1 8.1 7.3 -1.2 1.1 -2.6 1.2 -6.8 0.5 -7.1 -1.2 -13.1 -0.2 -15.6 2.5 -1.8 1.9 -1.9 2.6 -0.9 4.7 0.9 1.8 2.7 2.8 7.2 4 8.6 2.2 15.1 5.4 17 8.3 4 6.2 2.1 14.3 -4.4 18 -4 2.4 -13.3 3.1 -19.3 1.4z"/>
  <path d="M717.8 628.6 c-9.9 -4.1 -13.2 -9.5 -13.2 -21.7 0.1 -7.6 0.4 -9.2 2.8 -13.2 5.1 -8.8 14.9 -13.1 23.7 -10.6 8.7 2.5 13.9 8.2 15.9 17.2 1.8 8.5 1.6 8.6 -17.3 8.9 l-16.2 0.3 0.2 2.9 c0.3 3.7 4.7 8.3 9.2 9.6 4.5 1.2 12.4 1.3 13.7 0.1 0.5 -0.5 2.6 -1.3 4.6 -1.6 3 -0.6 3.9 -0.4 4.4 0.9 1.1 2.8 -2.1 6.1 -7.6 7.9 -7.1 2.3 -13.4 2.1 -20.2 -0.7z m20.8 -28.8 c-2.4 -12.2 -20.2 -13.6 -24.7 -2 -2 5.1 -1.9 5.2 12.2 5.2 l13.2 0 -0.7 -3.2z"/>
  <path d="M325.1 628.6 c-1.4 -1.7 -0.7 -5 2.5 -11.7 1.3 -2.7 2.4 -5.3 2.4 -5.7 0 -0.5 1.1 -3.1 2.5 -5.8 1.4 -2.7 2.5 -5.2 2.5 -5.6 0 -0.5 1.6 -4.2 3.5 -8.4 1.9 -4.1 3.5 -7.9 3.5 -8.3 0 -0.4 0.6 -2.1 1.4 -3.7 0.8 -1.6 2.4 -5 3.5 -7.6 2.2 -4.8 4.6 -6.4 8.8 -5.6 1.8 0.3 5.4 6.8 9.3 16.7 1.1 2.9 2.9 7.2 3.9 9.5 1 2.2 3.5 8.2 5.6 13.1 2.1 5 4.9 11.5 6.2 14.7 2.8 6.4 2.4 9.8 -1 9.8 -3.5 0 -4.5 -1.2 -7.4 -8.5 l-2.8 -7 -15.7 -0.3 -15.7 -0.3 -2.1 4.8 c-5 11.2 -5 11.3 -7.4 11.3 -1.3 0 -2.9 -0.6 -3.5 -1.4z m39.5 -24.1 c0.4 -0.8 0.2 -2.1 -0.3 -2.8 -0.6 -0.6 -2.7 -5.5 -4.8 -10.7 -4.1 -10.3 -5.3 -12.3 -6.6 -11.4 -1 0.6 -4.9 8.8 -4.9 10.2 0 0.5 -0.6 2.2 -1.4 3.8 -3.9 8.2 -4.7 10.4 -4.1 11.3 0.4 0.7 4.9 1.1 11.1 1.1 8.4 0 10.6 -0.3 11 -1.5z"/>
  <path d="M395.3 628.8 c-1.2 -2 -1.6 -59.8 -0.4 -63.1 1.3 -3.3 4.4 -3.6 6.5 -0.5 1.4 1.9 1.6 6.5 1.5 30.8 -0.1 15.7 -0.4 29.6 -0.8 31 -0.8 2.8 -5.3 4 -6.8 1.8z"/>
  <path d="M542.2 628.8 c-1.4 -1.8 -5.1 -9.4 -6.7 -13.7 -0.8 -2 -3.6 -9 -6.4 -15.6 -5.1 -12 -5.5 -14.9 -2.2 -16 2.7 -0.8 4.5 0.2 5.8 3.3 3.2 7.6 6.6 16.3 8.4 21.2 3.5 9.7 4.2 11 5.6 9.8 0.7 -0.6 1.3 -1.4 1.3 -1.9 0 -0.5 1 -3.2 2.3 -6.1 1.3 -2.9 2.9 -7.1 3.6 -9.3 2.3 -7.1 7.6 -17 9.2 -17.3 0.9 -0.2 2.4 0.4 3.2 1.2 1.9 1.9 0.9 6.1 -3.4 15.1 -1.6 3.3 -2.9 6.3 -2.9 6.8 0 0.4 -0.9 2.7 -1.9 5.1 -1.1 2.3 -3 6.7 -4.1 9.7 -1.2 3 -2.9 6.2 -3.7 7.2 -1.9 2 -6.6 2.3 -8.1 0.5z"/>
  <path d="M629.2 628.8 c-0.9 -0.9 -1.2 -7.1 -1.2 -21.9 0 -17.5 0.2 -21 1.6 -22.3 0.8 -0.9 2.1 -1.6 2.8 -1.6 1.6 0 4.6 3.2 4.6 4.8 0 1.7 1.5 1.5 3.1 -0.4 1.5 -1.8 5.4 -3.9 9.1 -4.8 2.1 -0.5 3.3 -0.1 4.8 1.4 2.9 2.9 1.2 5.6 -4.2 6.5 -4.3 0.7 -9.2 3.4 -11.5 6.3 -0.9 1.1 -1.3 5.8 -1.3 15.5 0 7.6 -0.5 14.7 -1 15.8 -1.2 2.1 -5 2.5 -6.8 0.7z"/>
  <path d="M366.5 517 c-1.1 -0.5 -3.2 -0.9 -4.8 -0.9 -1.5 -0.1 -3.5 -0.5 -4.5 -1 -0.9 -0.5 -3.6 -1.5 -6 -2.2 -5.7 -1.7 -15.4 -10.6 -17.7 -16.1 -2.1 -5.3 -3.1 -19.6 -1.7 -26.3 3.5 -16.8 9.3 -30.4 21.6 -50.3 2.8 -4.6 5.6 -9.1 6.1 -10 3.5 -5.9 7.8 -11.2 9 -11.2 2.4 0 2.4 5.5 0.1 10.5 -2.1 4.5 -3.5 8 -6.7 16.4 -1.4 3.7 -1.8 19.1 -0.6 23.4 0.9 3.3 6.7 9.9 11.1 12.7 9.8 6 30.3 6 51.1 0 1.7 -0.5 5.5 -1.5 8.5 -2.3 11.7 -3 44.7 -18.1 64 -29.2 3.6 -2.1 7.9 -4.5 9.5 -5.4 23.2 -12.6 66.6 -44.8 88.4 -65.6 33.8 -32.4 53.3 -57.4 69.8 -89.5 7.4 -14.4 13.7 -32.1 13.1 -36.8 -0.2 -2.2 -1.3 -0.7 -5.4 7.8 -4.4 9.1 -7.6 15.1 -15.4 28.5 -4.7 8.1 -24.5 36.4 -27 38.5 -0.3 0.3 -3.8 4.4 -7.8 9.2 -19 22.9 -51.7 52.9 -79.7 72.9 -13.8 10 -43 28.7 -52.5 33.8 -8.8 4.6 -33.9 17.1 -34.5 17.1 -0.3 0 -2.4 0.9 -4.8 1.9 -6.1 2.8 -18 7.1 -19.5 7.1 -0.7 0 -2 0.4 -3 1 -0.9 0.5 -4.8 1.6 -8.7 2.4 -8.3 1.8 -7.9 2.1 -16.5 -9.9 -12.5 -17.3 -23.2 -42.1 -26.7 -61.5 -0.2 -1.4 -1.1 -8.8 -2 -16.5 -1.4 -11.8 -1.4 -16 -0.4 -27.3 1.7 -19.9 6.9 -39.2 14.6 -55.1 1.9 -3.9 3.5 -7.4 3.5 -7.7 0 -0.8 12.5 -19.6 15.6 -23.4 7 -8.6 24.7 -25.2 33.4 -31.2 9.8 -6.8 27.9 -16 38.5 -19.6 20.5 -7 30.9 -8.7 53.5 -8.6 19.4 0.1 23.4 0.5 36.5 4.4 3.3 1 7.6 2.1 9.5 2.5 5.1 1 20.9 7.5 25 10.2 1.9 1.3 3.8 2.3 4.2 2.3 0.5 0 4.6 2.5 9.3 5.5 6.1 3.9 8.5 6 8.5 7.5 0 7.3 -10.9 32.2 -20.6 47.2 -1.3 2.1 -2.4 4 -2.4 4.2 0 0.8 -9.9 15.4 -15.9 23.6 -23 30.9 -52.4 61.2 -84 86.3 -4.7 3.7 -9.4 7.5 -10.4 8.3 -1 0.8 -1.5 2 -1.1 2.6 0.6 0.9 0.9 0.9 1.2 0 0.2 -0.7 0.8 -1.2 1.4 -1.2 0.8 0 9.9 -6 15.3 -10.2 25 -19.2 38.7 -31.2 57.4 -50.4 28.1 -28.9 52 -62.2 62.1 -86.9 7.3 -17.7 9 -37.9 4.3 -50.1 -2.3 -5.9 -3 -6.9 -9.5 -13.5 -4.1 -4.2 -4.5 -5 -3 -5.8 2.1 -1.1 18 -2.6 24.7 -2.3 13.9 0.7 20.8 3.3 28.5 10.8 l4.6 4.4 11.4 0 c14.8 0 22 1.2 29.7 5 14.6 7.2 20.4 21.1 17.2 41 -4.7 29.5 -30.4 71 -70.4 113.9 -16.5 17.6 -40.7 40.1 -60.5 56.2 -13.9 11.2 -22 17.4 -40 30.5 -17 12.5 -52.3 33.5 -75 44.8 -3 1.5 -6.3 3.2 -7.3 3.7 -1 0.6 -6.6 3 -12.5 5.5 -5.9 2.5 -12 5.1 -13.7 5.8 -1.6 0.7 -5.7 2.3 -9 3.5 -3.3 1.3 -6.7 2.6 -7.5 3 -0.8 0.4 -4.6 1.6 -8.5 2.5 -3.8 1 -7.9 2.2 -9 2.6 -3.8 1.5 -10 2.9 -19 4.5 -4.9 0.8 -11.2 2 -13.8 2.5 -5.9 1.2 -20.4 1.2 -23.2 0z"/>
  <path d="M502.5 507 c-13.1 -2.7 -22.5 -5.4 -22.5 -6.5 0 -0.5 7.3 -4.7 16.3 -9.3 16.2 -8.3 21.6 -11.2 34.2 -18.7 3.7 -2.2 7.9 -4.6 9.4 -5.4 8.3 -4.5 42.9 -28.7 60.1 -42.1 26.8 -20.9 65.3 -56.7 81 -75.3 8.5 -10.1 8.4 -10.2 7.7 7 -0.6 13.5 -2 23 -4.6 32.3 -2.8 10 -3.3 11.7 -4.3 14.5 -0.6 1.7 -1.8 4.8 -2.8 7 -1 2.2 -2.1 5.1 -2.5 6.5 -0.4 1.4 -1.6 3.7 -2.6 5.2 -1.1 1.4 -1.9 2.9 -1.9 3.2 0 1.1 -9.8 16.4 -14.7 22.8 -2.6 3.5 -9 10.6 -14.2 15.9 -13.3 13.2 -25.2 21.9 -39.1 28.6 -11.3 5.3 -13.3 6.2 -22 8.8 -4.7 1.5 -9.4 3 -10.5 3.5 -9.6 4 -50.6 5.2 -67 2z"/>
  <path d="M77.1 173.3 c-1.7 -1.4 -21.1 -33.6 -21.1 -35 0 -0.2 -1.1 -2.1 -2.5 -4.4 l-2.6 -4 -25.4 0.3 -25.5 0.3 0 -5.2 0 -5.3 25.7 -0.2 25.7 -0.3 3.4 -6 c1.9 -3.3 4.2 -7.3 5.2 -9 0.9 -1.6 3.2 -5.7 5 -9 1.8 -3.3 3.6 -6.4 4 -7 0.4 -0.5 1.7 -2.7 2.9 -4.7 2.3 -4.3 2.9 -2.3 -5.1 -16.3 -12.5 -21.6 -15.2 -26.1 -16.1 -26.7 -0.6 -0.4 -12.3 -0.6 -25.9 -0.5 l-24.8 0.2 0 -5 0 -5 25 0.3 24.9 0.3 2.4 -3.8 c1.3 -2.1 3.9 -6.5 5.7 -9.8 10.4 -18.6 9.4 -17.5 15.6 -17.5 3 0 5.4 0.2 5.4 0.5 0 0.2 -2 3.9 -4.5 8.1 -2.5 4.1 -4.5 7.7 -4.5 7.9 0 0.2 -2.3 4.1 -5 8.8 -2.8 4.7 -5 9 -5 9.6 0 1.1 20.2 36.3 22.2 38.9 0.8 0.9 6.8 1.2 23.8 1.2 l22.8 0 4.2 -7.2 c2.4 -4 5.4 -9 6.7 -11 1.2 -2.1 2.3 -3.9 2.3 -4.1 0 -0.2 2.3 -4.3 5 -9.1 2.8 -4.8 5 -8.9 5 -9.2 0 -0.3 -1.6 -3 -3.5 -6 -1.9 -3 -3.5 -5.7 -3.5 -5.9 0 -0.3 -1.2 -2.4 -2.7 -4.8 -4.4 -6.9 -9.3 -15.8 -9.3 -16.8 0 -0.6 2.4 -0.9 5.3 -0.7 l5.2 0.3 6.2 10.5 c3.3 5.8 7.3 12.4 8.7 14.8 l2.5 4.2 23.8 -0.2 23.7 -0.3 7.8 -12.9 c4.3 -7.1 7.8 -13.2 7.8 -13.6 0 -1.9 3.3 -3.1 8 -2.8 l5.1 0.3 -5 8.4 c-2.8 4.6 -5.1 8.5 -5.1 8.7 0 0.1 -2.2 4 -5 8.5 -2.7 4.5 -5 8.9 -5 9.7 0 0.7 5.3 10.4 11.7 21.5 6.4 11 11.8 21 12 22.2 0.3 1.3 -3 8.1 -9.3 19 -5.3 9.4 -11.3 19.7 -13.1 23 -5.9 10.3 -3.1 9.5 -32.4 9.5 l-25.8 0 -2.3 4 c-15.6 27.6 -22.5 38.5 -24.8 39.1 -1.4 0.4 -14 0.7 -28.1 0.8 -23.1 0.1 -25.9 -0.1 -27.8 -1.6z m61.6 -24.8 c5.1 -8.8 10.2 -17.7 11.4 -19.8 l2 -3.8 -2.7 -4.7 c-1.4 -2.6 -3.7 -6.6 -5 -8.8 -1.3 -2.3 -5.2 -9 -8.7 -15 l-6.3 -10.9 -23.2 -0.3 -23.1 -0.2 -3 4.4 c-1.7 2.5 -3.1 4.7 -3.1 4.9 0 0.3 -1.9 3.8 -4.3 7.9 -2.4 4 -5.5 9.3 -6.9 11.8 -1.4 2.5 -3.4 5.9 -4.3 7.6 l-1.9 3.1 3.8 6.9 c2.1 3.8 5.1 8.9 6.6 11.4 1.5 2.5 4.6 7.9 7 12 2.4 4.1 4.8 8.1 5.3 8.8 0.8 0.9 6.3 1.2 24 1 l23.1 -0.3 9.3 -16z m70.3 -30.4 c2 -3.9 1.4 -4.1 -11.8 -4.1 -13.6 0 -17.2 -1 -17.2 -5 0 -4.2 3.4 -5 20.7 -5 l16.3 0 2 -3.2 c3.2 -5.4 2.8 -5.8 -5.4 -5.8 -9.8 0 -12.6 -1.1 -12.6 -4.8 0 -4.7 1.3 -5.2 14.7 -5.2 12.3 0 12.3 0 13.5 -2.6 0.8 -1.8 0.9 -3 0.1 -4.2 -1.2 -2 -15.7 -27.1 -18.5 -32.2 -3.6 -6.3 -2.2 -6 -26.5 -6 -23.5 0 -23.4 0 -25.9 4.5 -4 7.3 -7 12.5 -13.3 23.3 l-7.1 12.4 9.8 16.9 c12.3 21.4 11.6 20.2 12.5 21.7 0.6 0.9 6.6 1.2 24.2 1.2 22.1 0 23.5 -0.1 24.5 -1.9z"/>
 </g>
</svg>